<?xml version="1.0" encoding="UTF-8"?>
<!DOCTYPE svg PUBLIC "-//W3C//DTD SVG 1.1//EN" "http://www.w3.org/Graphics/SVG/1.1/DTD/svg11.dtd">
<svg xmlns="http://www.w3.org/2000/svg" version="1.1" width="60px" height="60px" style="shape-rendering:geometricPrecision; text-rendering:geometricPrecision; image-rendering:optimizeQuality; fill-rule:evenodd; clip-rule:evenodd" xmlns:xlink="http://www.w3.org/1999/xlink">
<g><path style="opacity:1" fill="#f4f4f4" d="M -0.5,-0.5 C 19.5,-0.5 39.5,-0.5 59.5,-0.5C 59.5,19.5 59.5,39.5 59.5,59.5C 39.5,59.5 19.5,59.5 -0.5,59.5C -0.5,39.5 -0.5,19.5 -0.5,-0.5 Z"/></g>
<g><path style="opacity:1" fill="#ad7848" d="M 11.5,16.5 C 18.5079,16.3337 25.5079,16.5004 32.5,17C 33.3802,18.3561 33.7135,19.8561 33.5,21.5C 36.8499,21.335 40.1832,21.5017 43.5,22C 43.9574,22.414 44.2907,22.914 44.5,23.5C 43.3112,24.4287 41.9778,24.762 40.5,24.5C 40.5,26.5 40.5,28.5 40.5,30.5C 43.1667,30.5 45.8333,30.5 48.5,30.5C 48.4595,33.8806 48.7929,37.2139 49.5,40.5C 48.1266,40.3433 46.7932,40.51 45.5,41C 42.5,45.6667 39.5,45.6667 36.5,41C 32.1287,40.1725 27.7953,40.3391 23.5,41.5C 22.7303,43.2718 21.3969,44.2718 19.5,44.5C 17.106,41.9957 14.106,40.4957 10.5,40C 10.1667,39.6667 9.83333,39.3333 9.5,39C 10.1825,31.5009 10.8491,24.0009 11.5,16.5 Z"/></g>
<g><path style="opacity:1" fill="#ede7e1" d="M 18.5,37.5 C 20.9118,37.6941 21.9118,39.0274 21.5,41.5C 18.0464,41.7332 17.0464,40.3999 18.5,37.5 Z"/></g>
<g><path style="opacity:1" fill="#eee8e3" d="M 39.5,37.5 C 40.5,37.5 41.5,37.5 42.5,37.5C 42.5,38.8333 42.5,40.1667 42.5,41.5C 41.5,41.5 40.5,41.5 39.5,41.5C 39.5,40.1667 39.5,38.8333 39.5,37.5 Z"/></g>
</svg>
